<?xml version="1.0" encoding="utf-8"?>
<!-- Generator: Adobe Illustrator 16.0.0, SVG Export Plug-In . SVG Version: 6.00 Build 0)  -->
<!DOCTYPE svg PUBLIC "-//W3C//DTD SVG 1.1//EN" "http://www.w3.org/Graphics/SVG/1.1/DTD/svg11.dtd">
<svg version="1.1" id="Layer_1" xmlns="http://www.w3.org/2000/svg" xmlns:xlink="http://www.w3.org/1999/xlink" x="0px" y="0px"
	 width="100px" height="82.847px" viewBox="-0.001 0.527 100 82.847" enable-background="new -0.001 0.527 100 82.847"
	 xml:space="preserve">
<g id='massage'>
	<path d="M96.315,75.476c0,0-15.449,0-33.725,0v7.853v0.045c8.006,0,13.516,0,13.516,0c5.889,0,8.444-0.046,11.536-0.045h9.017
		c2.806,0,3.116-2.388,3.116-2.388v-2.01C99.775,78.931,99.974,75.476,96.315,75.476z"/>
	<path d="M91.642,73.454c4.606,0,8.357-3.732,8.357-8.328c0-4.615-3.751-8.336-8.357-8.336c-4.609,0-8.351,3.721-8.351,8.336
		C83.291,69.719,87.032,73.454,91.642,73.454z"/>
	<path d="M74.025,73.946c4.388,0,7.914-3.543,7.914-7.898c0-4.342-3.497-6.856-7.853-6.889l-11.496,1.223v13.564H74.025
		L74.025,73.946z"/>
	<path d="M36.505,19.027c5.123,0,9.268-4.143,9.268-9.251c0-5.109-4.146-9.249-9.268-9.249c-5.118,0-9.27,4.14-9.27,9.249
		C27.236,14.885,31.387,19.027,36.505,19.027z"/>
	<path d="M27.043,48.966c-0.023-0.04-0.062-0.067-0.081-0.116l-4.201-9.904l-0.007,19.216h12.553l2.742-2.724l-7.436-2.758
		C28.847,52.024,27.597,50.625,27.043,48.966z"/>
	<path d="M29.706,48.096c0.403,0.912,1.157,1.644,2.104,1.984l14.326,5.274c1.835,0.802,3.978-0.028,4.779-1.862
		c0.806-1.839-0.027-3.979-1.867-4.784l-13.216-4.961l-4.084-9.741l2.66-0.983l3.474,8.342l10.06,3.704V34.874l5.321,3.158
		l2.646,13.315c0.658,1.897,2.721,2.9,4.62,2.244c1.891-0.654,2.891-2.723,2.238-4.617L59.79,36.148
		c-0.195-0.715-0.612-1.343-1.171-1.814c-1.53-1.68-9.249-10.141-9.799-10.717c-0.807-0.802-2.653-2.129-6.134-2.129H30.184
		c-7.104,0-8.472,7.084-7.018,10.748L29.706,48.096z"/>
	<path d="M60.521,59.684H4.096c-2.051,0-4.097,2.052-4.097,4.584c0,0.588,0.001,1.661,0.001,1.661l-0.001,17.399
		c0,0,3.664,0,4.855,0h55.667V59.684z"/>
</g>
</svg>
