<svg xmlns="http://www.w3.org/2000/svg" xmlns:xlink="http://www.w3.org/1999/xlink" version="1.1" id="Livello_1" x="0px" y="0px" width="100px" height="100px" viewBox="0 0 100 100" enable-background="new 0 0 100 100" xml:space="preserve">
<g>
	<path d="M84.123,18.105c0.395,3.245-2.325,7.856-7.985,10.623c-5.163,2.526-12.875,3.306-20.822,4.27   c-16.663,2.022-30.78-1.373-31.532-7.58c-0.316-2.606,1.465-6.215,5.235-8.606c5.203-3.301,13.912-5.117,23.574-6.288   c8.078-0.979,16.245-1.95,21.896-0.681C80.488,11.193,83.737,14.907,84.123,18.105z"/>
	<path d="M79.474,75.518c-6.28,1.165-14.699,1.396-23.852,0.427c-8.278-0.878-15.264-3.243-20.867-5.527   c-7.963,0.578-14.896,1.915-19.467,3.962c-4.171,1.868-7.468,4.779-7.533,7.338C7.583,88.543,26.117,94.312,47.232,94.85   c8.655,0.22,16.273-1.682,22.72-3.086c9.283-2.023,15.724-4.273,15.827-8.304C85.846,80.822,83.624,77.881,79.474,75.518z"/>
	<path d="M81.188,57.119c-1.567-0.62-3.334-1.106-5.25-1.503c-6.576,1.736-15.241,2.612-24.697,2.241   c-8.01-0.317-14.474-2.42-20.379-4.207c-4.558,1.571-9.613,4.012-9.862,6.368c-0.303,2.858,5.98,5.2,11.899,7.724   c5.918,2.521,13.614,5.403,22.95,6.394c18.67,1.98,34.297-1.047,34.904-6.767C91.076,64.326,87.803,59.734,81.188,57.119z"/>
	<path d="M78.098,35.222c-2.806-1.077-6.104-1.895-9.756-2.512c-3.99,0.753-8.435,1.246-12.954,1.794   C45.12,35.75,35.771,35.041,29.62,32.933c-8.686,1.934-14.354,5.26-14.511,9.246c-0.159,4.041,6.368,6.846,15.086,9.46   c6.084,1.827,12.734,4.081,21.046,4.41c20.228,0.797,36.845-4.119,37.115-10.98C88.49,41.638,84.637,37.73,78.098,35.222z"/>
</g>
</svg>