<svg xmlns="http://www.w3.org/2000/svg" xmlns:xlink="http://www.w3.org/1999/xlink" version="1.1" id="Layer_1" x="0px" y="0px" viewBox="0 0 90 90" enable-background="new 0 0 90 90" xml:space="preserve" height="100px" width="100px">
<path d="M18,43.2c0.2,0.5,0,1.1-0.4,1.5l-2.3,2.2c-0.1,0.1-0.1,0.2-0.1,0.4l0.5,3.2c0.1,0.4,0,0.8-0.3,1.1c-0.3,0.3-0.7,0.5-1.1,0.5  c-0.2,0-0.5-0.1-0.7-0.2l-2.8-1.5c-0.1-0.1-0.3-0.1-0.4,0l-2.8,1.5c-0.6,0.3-1.3,0.2-1.7-0.3c-0.3-0.3-0.4-0.7-0.3-1.1l0.5-3.2  c0-0.1,0-0.3-0.1-0.4l-2.3-2.2c-0.4-0.4-0.5-0.9-0.4-1.5c0.2-0.5,0.6-0.9,1.1-1l3.2-0.5c0.1,0,0.3-0.1,0.3-0.2l1.4-2.9  c0.2-0.5,0.7-0.8,1.3-0.8c0.5,0,1,0.3,1.3,0.8l1.4,2.9c0.1,0.1,0.2,0.2,0.3,0.2l3.2,0.5C17.4,42.3,17.8,42.7,18,43.2z M34,42.3  l-3.2-0.5c-0.1,0-0.3-0.1-0.3-0.2l-1.4-2.9c-0.2-0.5-0.7-0.8-1.3-0.8c-0.5,0-1,0.3-1.3,0.8l-1.4,2.9c-0.1,0.1-0.2,0.2-0.3,0.2  l-3.2,0.5c-0.5,0.1-1,0.4-1.1,1c-0.2,0.5,0,1.1,0.4,1.5l2.3,2.2c0.1,0.1,0.1,0.2,0.1,0.4l-0.5,3.2c-0.1,0.4,0,0.8,0.3,1.1  c0.4,0.5,1.2,0.7,1.7,0.3l2.8-1.5c0.1-0.1,0.3-0.1,0.4,0l2.8,1.5c0.2,0.1,0.4,0.2,0.7,0.2c0.4,0,0.8-0.2,1.1-0.5  c0.3-0.3,0.4-0.7,0.3-1.1l-0.5-3.2c0-0.1,0-0.3,0.1-0.4l2.3-2.2c0.4-0.4,0.5-0.9,0.4-1.5C35,42.7,34.5,42.3,34,42.3z M51.2,42.3  L48,41.8c-0.1,0-0.3-0.1-0.3-0.2l-1.4-2.9c-0.2-0.5-0.7-0.8-1.3-0.8s-1,0.3-1.3,0.8l-1.4,2.9c-0.1,0.1-0.2,0.2-0.3,0.2l-3.2,0.5  c-0.5,0.1-1,0.4-1.1,1c-0.2,0.5,0,1.1,0.4,1.5l2.3,2.2c0.1,0.1,0.1,0.2,0.1,0.4l-0.5,3.2c-0.1,0.4,0,0.8,0.3,1.1  c0.4,0.5,1.2,0.7,1.7,0.3l2.8-1.5c0.1-0.1,0.3-0.1,0.4,0l2.8,1.5c0.2,0.1,0.4,0.2,0.7,0.2c0.4,0,0.8-0.2,1.1-0.5  c0.3-0.3,0.4-0.7,0.3-1.1l-0.5-3.2c0-0.1,0-0.3,0.1-0.4l2.3-2.2c0.4-0.4,0.5-0.9,0.4-1.5S51.7,42.3,51.2,42.3z M69.5,43.2  c0.2,0.5,0,1.1-0.4,1.5l-2.3,2.2c-0.1,0.1-0.1,0.2-0.1,0.4l0.5,3.2c0.1,0.4,0,0.8-0.3,1.1c-0.3,0.3-0.7,0.5-1.1,0.5  c-0.2,0-0.5-0.1-0.7-0.2l-2.8-1.5c-0.1-0.1-0.3-0.1-0.4,0l-2.8,1.5c-0.6,0.3-1.3,0.2-1.7-0.3c-0.3-0.3-0.4-0.7-0.3-1.1l0.5-3.2  c0-0.1,0-0.3-0.1-0.4l-2.3-2.2c-0.4-0.4-0.5-0.9-0.4-1.5s0.6-0.9,1.1-1l3.2-0.5c0.1,0,0.3-0.1,0.3-0.2l1.4-2.9  c0.2-0.5,0.7-0.8,1.3-0.8s1,0.3,1.3,0.8l1.4,2.9c0.1,0.1,0.2,0.2,0.3,0.2l3.2,0.5C68.9,42.3,69.3,42.7,69.5,43.2z M68.5,43.5  c0-0.1-0.1-0.2-0.3-0.3L65,42.8c-0.5-0.1-0.9-0.4-1.1-0.8l-1.4-2.9c-0.1-0.2-0.3-0.2-0.4-0.2c-0.1,0-0.3,0-0.4,0.2L60.4,42  c-0.2,0.4-0.6,0.7-1.1,0.8l-3.2,0.5c-0.2,0-0.3,0.2-0.3,0.3s-0.1,0.3,0.1,0.4l2.3,2.2c0.3,0.3,0.5,0.8,0.4,1.3l-0.5,3.2  c0,0.2,0,0.3,0.1,0.3c0.1,0.1,0.3,0.2,0.5,0.1l2.8-1.5c0.2-0.1,0.4-0.2,0.7-0.2s0.5,0.1,0.7,0.2l2.8,1.5c0.2,0.1,0.4,0,0.5-0.1  c0.1-0.1,0.1-0.2,0.1-0.3l-0.5-3.2c-0.1-0.5,0.1-0.9,0.4-1.3l2.3-2.2C68.6,43.8,68.6,43.6,68.5,43.5z M84,46.9  c-0.1,0.1-0.1,0.2-0.1,0.4l0.5,3.2c0.1,0.4,0,0.8-0.3,1.1c-0.3,0.3-0.7,0.5-1.1,0.5c-0.2,0-0.5-0.1-0.7-0.2l-2.8-1.5  c-0.1-0.1-0.3-0.1-0.4,0l-2.8,1.5c-0.6,0.3-1.3,0.2-1.7-0.3c-0.3-0.3-0.4-0.7-0.3-1.1l0.5-3.2c0-0.1,0-0.3-0.1-0.4l-2.3-2.2  c-0.4-0.4-0.5-0.9-0.4-1.5s0.6-0.9,1.1-1l3.2-0.5c0.1,0,0.3-0.1,0.3-0.2l1.4-2.9c0.2-0.5,0.7-0.8,1.3-0.8c0.5,0,1,0.3,1.3,0.8  l1.4,2.9c0.1,0.1,0.2,0.2,0.3,0.2l3.2,0.5c0.5,0.1,1,0.4,1.1,1s0,1.1-0.4,1.5L84,46.9z M83.3,46.2l2.3-2.2c0.2-0.2,0.1-0.4,0.1-0.4  s-0.1-0.2-0.3-0.3l-3.2-0.5c-0.5-0.1-0.9-0.4-1.1-0.8l-1.4-2.9c-0.1-0.2-0.3-0.2-0.4-0.2c-0.1,0-0.3,0-0.4,0.2L77.6,42  c-0.2,0.4-0.6,0.7-1.1,0.8l-3.2,0.5c-0.2,0-0.3,0.2-0.3,0.3s-0.1,0.3,0.1,0.4l2.3,2.2c0.3,0.3,0.5,0.8,0.4,1.3l-0.5,3.2  c0,0.2,0,0.3,0.1,0.3c0.1,0.1,0.3,0.2,0.5,0.1l2.8-1.5c0.2-0.1,0.4-0.2,0.7-0.2s0.5,0.1,0.7,0.2l2.8,1.5c0.2,0.1,0.4,0,0.5-0.1  c0.1-0.1,0.1-0.2,0.1-0.3l-0.5-3.2C82.8,47,83,46.5,83.3,46.2z"/>
<g>
	<path d="M-168.6,45.3l-2.8,1.5c-0.7,0.4-1.5-0.2-1.3-1l0.5-3.2c0.1-0.3,0-0.6-0.3-0.8l-2.3-2.2c-0.5-0.5-0.2-1.5,0.5-1.6l3.2-0.5   c0.3,0,0.6-0.2,0.7-0.5l1.4-2.9c0.3-0.7,1.3-0.7,1.6,0l1.4,2.9c0.1,0.3,0.4,0.5,0.7,0.5l3.2,0.5c0.8,0.1,1.1,1,0.5,1.6l-2.3,2.2   c-0.2,0.2-0.3,0.5-0.3,0.8l0.5,3.2c0.1,0.7-0.7,1.3-1.3,1l-2.8-1.5C-168,45.2-168.3,45.2-168.6,45.3z"/>
	<path d="M-149.6,45.3l-2.8,1.5c-0.7,0.4-1.5-0.2-1.3-1l0.5-3.2c0.1-0.3,0-0.6-0.3-0.8l-2.3-2.2c-0.5-0.5-0.2-1.5,0.5-1.6l3.2-0.5   c0.3,0,0.6-0.2,0.7-0.5l1.4-2.9c0.3-0.7,1.3-0.7,1.6,0l1.4,2.9c0.1,0.3,0.4,0.5,0.7,0.5l3.2,0.5c0.8,0.1,1.1,1,0.5,1.6l-2.3,2.2   c-0.2,0.2-0.3,0.5-0.3,0.8l0.5,3.2c0.1,0.7-0.7,1.3-1.3,1l-2.8-1.5C-149.1,45.2-149.4,45.2-149.6,45.3z"/>
</g>
</svg>