<svg xmlns="http://www.w3.org/2000/svg" xmlns:xlink="http://www.w3.org/1999/xlink" version="1.1" id="Layer_1" x="0px" y="0px" width="77.2151898734px" height="100px" viewBox="0 0 122.277 158.543" enable-background="new 0 0 122.277 158.543" xml:space="preserve">
<g>
	<path d="M63.467,156.543c-10.337,0-30.857-14.184-36.012-18.893c-2.454-2.242-5.75-7.346-6.966-14.352l-0.096-0.554   c-1.529-8.802-5.433-17.753-4.915-21.89c0.092-0.739-0.389-2.662-0.853-4.521c-0.557-2.229-1.188-4.757-1.477-7.352   c-0.492-4.397-0.881-10.991,1.402-17.441c8.833-24.939,44.651-35.499,57.414-35.499c13.714,0,37.434,27.05,39.182,33.614   c1.468,5.51,1.583,12.799,1.716,21.24c0.029,1.819,0.059,3.692,0.104,5.611c0.172,7.42-2.996,11.151-4.128,16.695   c-0.424,2.081-0.861,4.232-1.225,6.449c-0.178,1.084-0.287,2.147-0.394,3.178c-0.392,3.777-0.796,7.684-4.521,13.064   C98.028,142.648,73.766,156.543,63.467,156.543z M71.967,39.043c-11.766,0-46.369,10.301-54.586,33.501   c-2.077,5.867-1.708,12.002-1.25,16.106c0.269,2.396,0.873,4.818,1.406,6.957c0.626,2.513,1.08,4.326,0.917,5.621   c-0.461,3.691,3.479,12.854,4.895,21.004l0.096,0.554c1.087,6.26,3.93,10.728,6.034,12.649   c5.585,5.104,24.985,18.106,33.987,18.106c9.186,0,32.615-13.356,36.768-19.354c3.288-4.748,3.619-7.955,4.003-11.666   c0.111-1.072,0.226-2.182,0.417-3.354c0.371-2.272,0.816-4.455,1.246-6.563c1.146-5.629,4.23-8.944,4.066-16.026   c-0.044-1.927-0.073-3.808-0.103-5.636c-0.13-8.241-0.243-15.36-1.615-20.514C106.549,64.048,83.555,39.043,71.967,39.043z"/>
</g>
<g>
	<path d="M16.113,108.369C-7.763,71.354,0.042,37.778,7.267,28.144c5.685-7.58,13.875-11.577,21.796-15.442   c2.88-1.405,5.856-2.858,8.66-4.46c10.79-6.166,16.565-7.188,28.113-8.192c12.398-1.096,38.124,15.894,45.997,25.014   c0.479,0.554,0.486,1.373,0.021,1.937s-1.274,0.708-1.906,0.342c-0.221-0.127-22.203-12.712-38.4-10.479   C58.573,18.655,51.43,29.107,44.522,39.215c-4.519,6.611-8.786,12.856-14.395,15.823l-1.402-2.651   c4.953-2.621,9.017-8.568,13.319-14.864c6.938-10.151,14.801-21.657,29.093-23.63c10.386-1.434,22.563,2.612,30.803,6.169   C91.059,11.561,74.255,2.341,66.097,3.038C54.779,4.022,49.529,4.95,39.211,10.846c-2.887,1.65-5.91,3.125-8.833,4.551   c-7.951,3.88-15.461,7.545-20.711,14.546c-6.833,9.111-14.062,41.098,8.967,76.798L16.113,108.369z"/>
</g>
<g>
	<path d="M38.153,102.916c-10.028,0-18.187-8.158-18.187-18.188c0-10.026,8.158-18.186,18.187-18.186   c10.027,0,18.186,8.158,18.186,18.186C56.339,94.757,48.181,102.916,38.153,102.916z M38.153,69.543   c-8.374,0-15.187,6.812-15.187,15.186c0,8.375,6.813,15.188,15.187,15.188s15.186-6.813,15.186-15.188   C53.339,76.355,46.527,69.543,38.153,69.543z"/>
</g>
<g>
	<path d="M85.153,102.916c-10.027,0-18.187-8.158-18.187-18.188c0-10.026,8.158-18.186,18.187-18.186s18.186,8.158,18.186,18.186   C103.338,94.757,95.18,102.916,85.153,102.916z M85.153,69.543c-8.373,0-15.187,6.812-15.187,15.186   c0,8.375,6.813,15.188,15.187,15.188s15.186-6.813,15.186-15.188C100.338,76.355,93.526,69.543,85.153,69.543z"/>
</g>
<g>
	<path d="M62.467,119.793c-2.528,0-4.178-1.465-5.269-2.436c-0.161-0.144-0.358-0.317-0.52-0.448   c-0.021,0.017-0.04,0.032-0.061,0.05c-0.663,0.549-2.041,1.688-4.261,0.705c-3.001-1.334-4.566-5.471-3.283-8.678l2.785,1.113   c-0.684,1.707,0.184,4.142,1.717,4.821c0.521,0.231,0.589,0.175,1.129-0.272c0.486-0.402,1.302-1.074,2.458-0.82   c0.772,0.172,1.382,0.714,2.028,1.288c0.884,0.786,1.887,1.677,3.275,1.677V119.793z"/>
</g>
<g>
	<path d="M62.12,119.793v-3c1.389,0,2.393-0.891,3.275-1.677c0.646-0.574,1.257-1.117,2.028-1.288   c1.153-0.255,1.971,0.418,2.457,0.82c0.54,0.447,0.61,0.504,1.129,0.272c1.533-0.681,2.399-3.114,1.718-4.821l2.785-1.113   c1.282,3.207-0.282,7.344-3.283,8.678c-2.22,0.984-3.599-0.156-4.263-0.705c-0.021-0.02-0.044-0.037-0.063-0.057   c-0.145,0.127-0.349,0.309-0.515,0.455C66.297,118.329,64.649,119.793,62.12,119.793z"/>
</g>
<g>
	<path d="M46.21,130.596l-1.486-0.604c0.265-0.151,6.53-3.712,10.762-4.738c2.702-0.653,5.128,0.263,6.734,0.868   c0.371,0.141,0.881,0.333,1.045,0.354l-0.048,2.998c-0.613,0-1.252-0.24-2.059-0.546c-1.337-0.504-3.164-1.196-4.966-0.759   C52.375,129.094,46.272,130.561,46.21,130.596z"/>
</g>
<g>
	<path d="M63.217,134.043c-1.203,0-3.377-0.375-5.894-0.811c-0.914-0.157-1.842-0.317-2.722-0.459   c-2.908-0.467-8.449-1.991-8.505-1.986l-0.261-0.988c0.242-0.021,5.965-0.509,9.238,0.014c0.891,0.143,1.833,0.306,2.759,0.465   c2.182,0.377,4.437,0.767,5.383,0.767L63.217,134.043L63.217,134.043z"/>
</g>
<g>
	<path d="M63.467,138.877c-6.966,0-18.223-8.881-18.698-9.132l1.396,0.346c0.11,0.058,11.077,5.786,17.302,5.786V138.877z"/>
</g>
<g>
	<path d="M79.724,130.596c-0.063-0.035-6.165-1.502-9.981-2.428c-1.798-0.438-3.63,0.253-4.967,0.759   c-0.808,0.306-1.444,0.546-2.06,0.546v-3c0.117-0.02,0.627-0.212,0.998-0.353c1.605-0.604,4.031-1.524,6.734-0.868   c4.229,1.025,10.496,4.587,10.761,4.738L79.724,130.596z"/>
</g>
<g>
	<path d="M62.717,134.043v-3c0.946,0,3.201-0.391,5.383-0.766c0.927-0.16,1.867-0.323,2.761-0.467   c3.271-0.521,8.995-0.033,9.237-0.013l-0.261,0.988c-0.056-0.005-5.599,1.521-8.505,1.987c-0.88,0.141-1.809,0.301-2.723,0.459   C66.094,133.668,63.921,134.043,62.717,134.043z"/>
</g>
<g>
	<path d="M62.467,138.877v-3c8.775,0,17.066-5.638,17.149-5.693l1.701-0.529C80.946,129.909,72.172,138.877,62.467,138.877z"/>
</g>
<g>
	<path d="M35.467,83.043c0,0-6.667-1.666-4.667-3.667C32.801,77.377,35.467,83.043,35.467,83.043z"/>
	<path d="M37.27,84.525l-2.045-0.512c-1.549-0.388-5.207-1.492-5.73-3.382c-0.11-0.397-0.179-1.184,0.601-1.962   c0.595-0.596,1.221-0.721,1.641-0.721c2.265,0,4.123,3.574,4.638,4.668L37.27,84.525z M31.447,80.152   c0.169,0.287,0.86,0.695,1.774,1.086c-0.566-0.754-1.129-1.289-1.487-1.289c-0.022,0-0.092,0-0.228,0.135   C31.48,80.111,31.461,80.134,31.447,80.152z"/>
</g>
<g>
	<path d="M35.941,85.917c0,0-4.776,4.94-5.508,2.209C29.701,85.393,35.941,85.917,35.941,85.917z"/>
	<path d="M31.389,89.949c-0.94,0-1.659-0.585-1.922-1.564c-0.256-0.953,0.056-1.628,0.36-2.025c0.754-0.983,2.423-1.481,4.958-1.481   c0.727,0,1.239,0.044,1.239,0.044l2.097,0.178l-1.461,1.515C35.904,87.395,33.287,89.949,31.389,89.949z M33.259,86.958   c-1.157,0.14-1.698,0.427-1.845,0.617c-0.025,0.032-0.068,0.09-0.015,0.291c0.009,0.034,0.019,0.061,0.025,0.081   C31.818,87.923,32.51,87.523,33.259,86.958z"/>
</g>
<g>
	<path d="M38.705,87.285c0,0,3.009,6.179,0.191,5.931C36.079,92.969,38.705,87.285,38.705,87.285z"/>
	<path d="M39.056,94.223c-0.079,0-0.161-0.004-0.248-0.012c-1.031-0.09-1.564-0.656-1.831-1.113   c-1.091-1.883,0.49-5.521,0.818-6.231l0.885-1.914l0.923,1.896c0.685,1.405,2.166,4.853,1.14,6.492   C40.387,93.909,39.788,94.223,39.056,94.223z M38.765,90.166c-0.198,0.855-0.25,1.595-0.058,1.928   c0.026,0.047,0.063,0.107,0.275,0.126l0.073,0.003c0.006,0,0.012,0,0.018,0C39.185,91.907,39.054,91.115,38.765,90.166z"/>
</g>
<g>
	<path d="M40.877,84.396c0,0,6.179-3.01,5.932-0.191C46.562,87.021,40.877,84.396,40.877,84.396z"/>
	<path d="M45.035,86.508c-1.947,0-4.471-1.154-4.577-1.203l-1.914-0.886l1.896-0.923C40.754,83.343,43.568,82,45.493,82   c0.799,0,1.414,0.229,1.826,0.678c0.261,0.284,0.557,0.797,0.485,1.613C47.683,85.68,46.647,86.508,45.035,86.508z M43.757,84.333   c0.449,0.104,0.894,0.175,1.277,0.175c0.743,0,0.761-0.208,0.777-0.391c0.003-0.035,0.003-0.063,0.003-0.085   C45.76,84.018,45.659,84,45.493,84C45.01,84,44.385,84.141,43.757,84.333z"/>
</g>
<g>
	<path d="M39.485,81.896c0,0,0.482-6.854,2.8-5.231C44.602,78.286,39.485,81.896,39.485,81.896z"/>
	<path d="M38.339,83.93l0.148-2.104c0.136-1.928,0.712-6.411,3.122-6.411c0.422,0,0.842,0.145,1.249,0.43   c0.848,0.593,1.026,1.35,1.028,1.88c0.004,2.175-3.187,4.537-3.825,4.988L38.339,83.93z M41.635,77.436   c-0.255,0.217-0.536,0.969-0.762,1.937c0.602-0.644,1.016-1.257,1.015-1.643c0-0.052,0-0.124-0.176-0.246   C41.68,77.462,41.654,77.446,41.635,77.436z"/>
</g>
<g>
	<path d="M87.722,83.043c0,0,6.667-1.666,4.667-3.667C90.389,77.377,87.722,83.043,87.722,83.043z"/>
	<path d="M85.919,84.525l0.897-1.907c0.516-1.095,2.373-4.668,4.639-4.668c0.42,0,1.045,0.125,1.642,0.721   c0.778,0.779,0.71,1.563,0.6,1.962c-0.523,1.891-4.183,2.994-5.731,3.381L85.919,84.525z M91.456,79.949   c-0.357,0-0.921,0.535-1.486,1.289c0.913-0.391,1.604-0.799,1.773-1.088c-0.014-0.018-0.033-0.039-0.061-0.066   C91.547,79.949,91.478,79.949,91.456,79.949z"/>
</g>
<g>
	<path d="M87.249,85.917c0,0,4.775,4.94,5.508,2.209C93.49,85.395,87.249,85.917,87.249,85.917z"/>
	<path d="M91.801,89.949L91.801,89.949c-1.897,0-4.516-2.555-5.271-3.338l-1.463-1.514l2.098-0.178c0,0,0.515-0.044,1.239-0.044   c2.536,0,4.204,0.498,4.958,1.481c0.306,0.397,0.616,1.072,0.36,2.025C93.459,89.364,92.742,89.949,91.801,89.949z M89.932,86.959   c0.75,0.563,1.439,0.964,1.832,0.988c0.008-0.021,0.017-0.047,0.025-0.081c0.055-0.201,0.011-0.259-0.015-0.291   C91.629,87.385,91.089,87.1,89.932,86.959z"/>
</g>
<g>
	<path d="M84.485,87.285c0,0-3.009,6.179-0.191,5.931C87.111,92.969,84.485,87.285,84.485,87.285z"/>
	<path d="M84.134,94.223L84.134,94.223c-0.731,0-1.332-0.313-1.688-0.884c-1.025-1.641,0.456-5.087,1.14-6.491l0.923-1.896   l0.886,1.914c0.328,0.71,1.91,4.35,0.817,6.23c-0.266,0.459-0.799,1.024-1.831,1.114C84.295,94.219,84.213,94.223,84.134,94.223z    M84.116,92.221l0.019,0.002l0.071-0.004c0.214-0.019,0.25-0.08,0.276-0.126c0.192-0.333,0.141-1.071-0.059-1.929   C84.136,91.114,84.004,91.905,84.116,92.221z"/>
</g>
<g>
	<path d="M82.313,84.396c0,0-6.18-3.01-5.933-0.191C76.627,87.021,82.313,84.396,82.313,84.396z"/>
	<path d="M78.155,86.508L78.155,86.508c-1.613,0-2.648-0.828-2.771-2.217c-0.071-0.816,0.226-1.329,0.485-1.613   C76.283,82.229,76.897,82,77.697,82c1.925,0,4.739,1.343,5.054,1.496l1.896,0.923l-1.914,0.886   C82.625,85.354,80.102,86.508,78.155,86.508z M77.375,84.033c-0.001,0.021,0,0.05,0.003,0.085c0.017,0.183,0.034,0.391,0.777,0.391   c0.385,0,0.828-0.069,1.276-0.175C78.803,84.141,78.178,84,77.697,84C77.531,84,77.43,84.018,77.375,84.033z"/>
</g>
<g>
	<path d="M83.705,81.896c0,0-0.482-6.854-2.8-5.231C78.587,78.286,83.705,81.896,83.705,81.896z"/>
	<path d="M84.85,83.93l-1.723-1.216c-0.64-0.45-3.83-2.813-3.826-4.988c0.002-0.53,0.182-1.287,1.029-1.881   c0.406-0.285,0.826-0.429,1.249-0.429c2.409,0,2.985,4.482,3.121,6.411L84.85,83.93z M81.555,77.436   c-0.021,0.01-0.046,0.025-0.077,0.047c-0.175,0.123-0.177,0.195-0.177,0.247c-0.001,0.406,0.43,1.02,1.017,1.644   C82.092,78.405,81.81,77.653,81.555,77.436z"/>
</g>
<g>
	<path d="M112.917,88.159l-2.438-1.748c6.915-9.646,9.087-13.187,8.767-23.454c-0.326-10.429-6.248-32.539-9.602-35.846l2.106-2.136   c4.239,4.181,10.155,27.09,10.492,37.888C122.594,74.065,120.122,78.11,112.917,88.159z"/>
</g>
</svg>